<svg id="icon_banana" xmlns="http://www.w3.org/2000/svg" viewBox="0 0 67.09 79.07">
  <defs>
    <style>
      .cls-1 {
        fill: #8ec63f;
      }

      .cls-2 {
        fill: #010200;
      }

      .cls-3 {
        fill: #fef200;
      }
    </style>
  </defs>
  <title>banana</title>
  <path id="green" class="cls-1" d="M4,17.91L4.26,18v0A0.55,0.55,0,0,1,5,17.71H5l0.88,0.35L9,17.61l1.7-.67a4.26,4.26,0,0,1-.41-1.18C9.81,13.1,9,8.15,9.89,5.76a13.76,13.76,0,0,0,.7-2.43,37.93,37.93,0,0,0-6-1.68l-0.29.09a4.82,4.82,0,0,0-1.75.82,18.84,18.84,0,0,1,2.38,8.72A27.73,27.73,0,0,1,4,17.91Z"/>
  <path id="black" class="cls-2" d="M66.67,64.13L66.61,64c-0.41-1-1.36-3.22-4-3.22-1.38,0-6-.63-19.23-6.5-13.86-6.14-18.58-16.34-22-23.78l-0.27-.57a53.25,53.25,0,0,0-6.57-10.27c-1.35-1.75-2.52-3.27-2.67-4.15-0.36-2.14-1.2-7.17-.45-9.15a11.24,11.24,0,0,0,.87-3.57V2.18L11.75,2S10.15,1.43,8.47.92C4.87-.18,4.41,0,4.1.07l-0.31.1c-1,.32-2.79.87-3,2.36l0,0.27L0.92,3S3.4,7.28,3.28,11.22a29.2,29.2,0,0,1-2,9.72C-0.77,27-.38,33.95,2.5,42.15a69.4,69.4,0,0,0,10.16,18.1C16.33,65,22.14,71.31,29.08,74.37a52.26,52.26,0,0,0,15.2,4.53,29.18,29.18,0,0,0,3.17.18,25.17,25.17,0,0,0,8.34-1.4C60.24,76.14,66,72.5,66.44,71,66.65,70.23,67.65,66.42,66.67,64.13Zm-2.41,7a32.45,32.45,0,0,1-9,5c-7.13,2.47-14.76,1.5-25.53-3.26C17.84,67.62,7.38,51.11,4,41.61,1.29,33.77.9,27.18,2.85,21.48a30.39,30.39,0,0,0,2.05-10.2A18.82,18.82,0,0,0,2.52,2.56a4.86,4.86,0,0,1,1.75-.82l0.29-.09a37.63,37.63,0,0,1,6,1.68,13.76,13.76,0,0,1-.7,2.44c-0.9,2.4-.07,7.34.37,10a4.26,4.26,0,0,0,.41,1.18L9,17.61l-3.12.45L5,17.71a0.55,0.55,0,1,0-.41,1l2.25,0.9,4.4-1.73c0.52,0.8,1.21,1.7,2,2.75a51.67,51.67,0,0,1,6.38,10l0.27,0.57c3.56,7.68,8.43,18.19,22.85,24.59,13,5.77,18.06,6.64,19.89,6.64h0.14C62.57,63,61.66,66,61.44,67c-3.08.23-11.85,0.63-18.49-1.44-10.1-3.15-26.67-15.09-31.52-29.34a0.55,0.55,0,0,0-1,.35c5,14.59,21.9,26.81,32.23,30a47.59,47.59,0,0,0,13.5,1.69c2.45,0,4.47-.13,5.59-0.21,0.91,1.13,3.31,2.08,2.54,3h0ZM7.78,20.79a0.41,0.41,0,0,0-.82,0,64.84,64.84,0,0,0,1.09,7.44,0.41,0.41,0,0,0,.81-0.12v0A68.58,68.58,0,0,1,7.78,20.79Z"/>
  <path id="yellow" class="cls-3" d="M61.73,68.09c-1.13.09-3.15,0.21-5.59,0.21a47.59,47.59,0,0,1-13.5-1.69c-10.33-3.22-27.27-15.44-32.23-30a0.55,0.55,0,0,1,1-.35C16.29,50.48,32.86,62.43,43,65.57,49.6,67.64,58.37,67.24,61.45,67c0.22-1,1.13-4,1.32-4.61H62.63c-1.84,0-6.87-.86-19.89-6.64-14.42-6.4-19.29-16.92-22.85-24.6l-0.27-.57a51.37,51.37,0,0,0-6.38-10c-0.81-1-1.5-1.95-2-2.75l-4.4,1.73-2.25-.9A0.55,0.55,0,0,1,4.27,18h0v0L4,17.91l0-.09C3.69,19,3.3,20.16,2.85,21.48,0.9,27.18,1.29,33.77,4,41.61c3.34,9.5,13.8,26,25.68,31.26,10.77,4.76,18.4,5.73,25.53,3.26a32.45,32.45,0,0,0,9-5C65,70.17,62.63,69.21,61.73,68.09ZM8.54,28.61a0.41,0.41,0,0,1-.48-0.33h0A61.45,61.45,0,0,1,7,20.84a0.41,0.41,0,0,1,.82,0h0a65.54,65.54,0,0,0,1.09,7.33,0.41,0.41,0,0,1-.33.48h0Z"/>
</svg>
