<svg id="icon_all_apes" xmlns="http://www.w3.org/2000/svg" viewBox="0 0 80.03 77.72">
  <defs>
    <style>
      .cls-1 {
        fill: #7c522e;
      }

      .cls-2 {
        fill: #9b7051;
      }
    </style>
  </defs>
  <title>all_apes</title>
  <g id="_8" data-name="8">
    <path id="face-color" class="cls-1" d="M30.93,5.62a4.84,4.84,0,0,0-2.6,1.24,4.25,4.25,0,0,1-1.64.91H26.57A4.78,4.78,0,0,1,25,6.87a4.84,4.84,0,0,0-2.6-1.24,2.11,2.11,0,0,0-1.63.58c-0.64.67-.91,2-0.83,4a19.62,19.62,0,0,0,.46,4.24c0.3,1.06.73,1.23,1.07,1.26a1.17,1.17,0,0,0,.82-0.61,13.83,13.83,0,0,0,1-1.54c0.59-1,.88-1.49,1.28-1.53h0.05a0.47,0.47,0,0,1,.35.16c0.41,0.45.11,1.11-.24,1.88a5.2,5.2,0,0,0-.64,2.35A24.59,24.59,0,0,1,24,19.72c-0.07.82-.13,1.59-0.13,2.29,0,1.47.82,3.12,2,3.12H27.5a1.8,1.8,0,0,0,1.41-1,4.21,4.21,0,0,0,.6-2.18c0-.7-0.06-1.47-0.13-2.29a24.59,24.59,0,0,1-.12-3.27,5.2,5.2,0,0,0-.64-2.35c-0.35-.77-0.65-1.43-0.24-1.88a0.46,0.46,0,0,1,.4-0.16c0.39,0,.69.53,1.28,1.53a13.83,13.83,0,0,0,1,1.54,1.17,1.17,0,0,0,.82.61c0.34,0,.76-0.19,1.07-1.26a19.62,19.62,0,0,0,.46-4.24c0.08-2.05-.19-3.38-0.83-4A2.11,2.11,0,0,0,30.93,5.62Zm-7.47,5.22A0.81,0.81,0,1,1,24.27,10,0.81,0.81,0,0,1,23.46,10.84ZM28,21.59H25.47a0.35,0.35,0,0,1,0-.71H28A0.35,0.35,0,1,1,28,21.59ZM28.35,15a0.35,0.35,0,0,1,0,.5L27,16.76a0.35,0.35,0,0,1-.24.09h0a0.35,0.35,0,0,1-.24-0.09l-1.32-1.21A0.35,0.35,0,1,1,25.66,15l1.1,1,1.1-1A0.35,0.35,0,0,1,28.35,15ZM30,10.84A0.81,0.81,0,1,1,30.85,10,0.81,0.81,0,0,1,30,10.84ZM39,5.61a1.76,1.76,0,0,0-1.24-.8,1.38,1.38,0,0,0-.88.22,9.45,9.45,0,0,1,.52,1.84,13.23,13.23,0,0,1,.06,4.56,8.84,8.84,0,0,1-1.15,3.13c0.84-.5,2.24-2,3-4.87C39.89,7.39,39.35,6.15,39,5.61ZM16.09,6.91a9.45,9.45,0,0,1,.51-1.82,1.36,1.36,0,0,0-.92-0.24,1.76,1.76,0,0,0-1.24.8c-0.38.54-.92,1.78-0.31,4.07,0.79,2.92,2.24,4.45,3.07,4.91A8.82,8.82,0,0,1,16,11.47,13.23,13.23,0,0,1,16.09,6.91Z"/>
    <path id="contour" d="M28,20.88H25.47a0.35,0.35,0,0,0,0,.71H28A0.35,0.35,0,1,0,28,20.88ZM39.55,5.2a2.46,2.46,0,0,0-1.77-1.1,2.09,2.09,0,0,0-1.23.27A9.08,9.08,0,0,0,35.7,3,7,7,0,0,0,33.08.71,9.46,9.46,0,0,0,29.14,0c-0.65,0-1.26,0-1.75.07l-0.63,0H26.7l-0.55,0c-0.46,0-1-.06-1.66-0.06a9.89,9.89,0,0,0-4.11.74A7,7,0,0,0,17.76,3a9.08,9.08,0,0,0-.87,1.44,2.09,2.09,0,0,0-1.26-.29,2.46,2.46,0,0,0-1.77,1.1c-0.45.64-1.1,2.1-.41,4.67a10.92,10.92,0,0,0,2,4.09,3.44,3.44,0,0,0,2.2,1.49,0.35,0.35,0,0,0,.15,0L18,15.65c0.57,0.65,1.13,1.25,1.68,1.83,1.7,1.81,3.17,3.37,3.63,5.36a5.4,5.4,0,0,0,.35,1,2.9,2.9,0,0,0,1.77,1.81,3.67,3.67,0,0,0,1.46.3,2.91,2.91,0,0,0,.63-0.06A2.68,2.68,0,0,0,28,25.76a3.94,3.94,0,0,0,2.21-3c0.46-2,1.93-3.55,3.63-5.36,0.55-.58,1.11-1.18,1.68-1.83l0.14-.17,0.11,0A3.44,3.44,0,0,0,38,14a10.92,10.92,0,0,0,2-4.09C40.65,7.3,40,5.84,39.55,5.2ZM14.14,9.73c-0.62-2.29-.07-3.54.31-4.07a1.76,1.76,0,0,1,1.24-.8,1.36,1.36,0,0,1,.92.24,9.45,9.45,0,0,0-.51,1.82A13.23,13.23,0,0,0,16,11.47a8.82,8.82,0,0,0,1.18,3.16C16.37,14.18,14.92,12.64,14.14,9.73Zm2.35,0.16q0-.2,0-0.41Q16.48,9.68,16.49,9.89Zm0.87,3.74,0.14,0.28Zm0.16-9.05,0.23-.43Zm11.62-4h0Zm-2.37.1h0Zm-0.08,0h0Zm-2.2-.09h0Zm-6.07,14.6q-0.18-.21-0.35-0.43,0.16,0.22.35,0.43l0.44,0.5Zm1-13.12,0.3-.24Zm0.76-.55L20,1.71Zm0.47,16.1,0.56,0.61ZM23,20.54q0.15,0.24.28,0.49Q23.11,20.78,23,20.54Zm9.4-2.43,0.39-.43Zm1-7.87a19.62,19.62,0,0,1-.46,4.24c-0.3,1.06-.73,1.23-1.07,1.26A1.17,1.17,0,0,1,31,15.12a13.83,13.83,0,0,1-1-1.54c-0.59-1-.88-1.49-1.28-1.53a0.46,0.46,0,0,0-.4.16c-0.41.45-.11,1.11,0.24,1.88a5.2,5.2,0,0,1,.64,2.35,24.59,24.59,0,0,0,.12,3.27c0.07,0.82.13,1.59,0.13,2.29a4.21,4.21,0,0,1-.6,2.18,1.8,1.8,0,0,1-1.41,1H25.87c-1.18,0-2-1.64-2-3.12,0-.7.06-1.47,0.13-2.29a24.59,24.59,0,0,0,.12-3.27,5.2,5.2,0,0,1,.64-2.35c0.35-.77.65-1.43,0.24-1.88a0.47,0.47,0,0,0-.35-0.16H24.59c-0.39,0-.69.53-1.28,1.53a13.83,13.83,0,0,1-1,1.54,1.17,1.17,0,0,1-.82.61c-0.34,0-.76-0.19-1.07-1.26A19.62,19.62,0,0,1,20,10.25c-0.08-2.05.19-3.38,0.83-4a2.11,2.11,0,0,1,1.63-.58A4.84,4.84,0,0,1,25,6.87a4.78,4.78,0,0,0,1.53.89h0.12a4.25,4.25,0,0,0,1.64-.91,4.84,4.84,0,0,1,2.6-1.24,2.11,2.11,0,0,1,1.63.58C33.2,6.86,33.47,8.18,33.39,10.24ZM33.28,1.52L33.5,1.67Zm0.46,0.31L34,2.07ZM35,15.19l-0.44.5,0.44-.5q0.18-.21.35-0.43Q35.22,15,35,15.19ZM35.71,4.1l0.23,0.43ZM36,13.86l0.14-.28Zm3.32-4.18c-0.76,2.84-2.16,4.37-3,4.87a8.84,8.84,0,0,0,1.15-3.13,13.23,13.23,0,0,0-.06-4.56A9.45,9.45,0,0,0,36.84,5a1.38,1.38,0,0,1,.88-0.22,1.76,1.76,0,0,1,1.24.8C39.35,6.15,39.89,7.39,39.28,9.68ZM30,9.23a0.81,0.81,0,1,0,.81.81A0.81,0.81,0,0,0,30,9.23ZM27.85,15l-1.1,1-1.1-1a0.35,0.35,0,1,0-.48.52l1.32,1.21a0.35,0.35,0,0,0,.24.09h0A0.35,0.35,0,0,0,27,16.76l1.32-1.21A0.35,0.35,0,1,0,27.85,15Zm-4.39-5.8a0.81,0.81,0,1,0,.81.81A0.81,0.81,0,0,0,23.46,9.23Z"/>
  </g>
  <g id="_7" data-name="7">
    <path id="face-color-2" data-name="face-color" class="cls-1" d="M52.9,12.27A5.34,5.34,0,0,0,50,13.64a4.7,4.7,0,0,1-1.81,1H48.15l-0.06,0a5.27,5.27,0,0,1-1.69-1,5.34,5.34,0,0,0-2.87-1.37,2.33,2.33,0,0,0-1.8.63c-0.71.74-1,2.19-.92,4.46a21.65,21.65,0,0,0,.51,4.68c0.33,1.17.81,1.36,1.18,1.39a1.3,1.3,0,0,0,.9-0.68,15.27,15.27,0,0,0,1.09-1.7c0.65-1.11,1-1.64,1.41-1.69H46a0.51,0.51,0,0,1,.38.18c0.45,0.49.12,1.22-.26,2.07a5.74,5.74,0,0,0-.71,2.59,27.14,27.14,0,0,1-.14,3.61c-0.07.9-.14,1.76-0.14,2.53,0,1.63.91,3.44,2.22,3.44h1.81a2,2,0,0,0,1.55-1.05,4.65,4.65,0,0,0,.66-2.41c0-.77-0.07-1.62-0.14-2.53a27.14,27.14,0,0,1-.14-3.61,5.74,5.74,0,0,0-.71-2.59C50,20.77,49.64,20,50.09,19.54a0.51,0.51,0,0,1,.44-0.17c0.43,0,.76.58,1.41,1.69A15.27,15.27,0,0,0,53,22.76a1.3,1.3,0,0,0,.9.68c0.37,0,.84-0.21,1.18-1.39a21.65,21.65,0,0,0,.51-4.68c0.09-2.27-.21-3.73-0.92-4.46A2.33,2.33,0,0,0,52.9,12.27ZM44.66,18a0.89,0.89,0,1,1,.89-0.89A0.89,0.89,0,0,1,44.66,18ZM49.71,29.9H46.87a0.39,0.39,0,0,1,0-.78h2.84A0.39,0.39,0,1,1,49.71,29.9Zm0.34-7.22a0.39,0.39,0,0,1,0,.55l-1.46,1.34a0.39,0.39,0,0,1-.26.1h0a0.39,0.39,0,0,1-.26-0.1l-1.46-1.34a0.39,0.39,0,1,1,.53-0.58l1.21,1.11,1.21-1.11A0.39,0.39,0,0,1,50.05,22.68ZM51.92,18a0.89,0.89,0,1,1,.89-0.89A0.89,0.89,0,0,1,51.92,18Zm9.85-5.77a1.94,1.94,0,0,0-1.37-.89,1.52,1.52,0,0,0-1,.24,10.43,10.43,0,0,1,.58,2,14.6,14.6,0,0,1,.07,5,9.75,9.75,0,0,1-1.27,3.45c0.93-.55,2.47-2.24,3.32-5.38C62.79,14.23,62.19,12.86,61.77,12.26ZM36.52,13.7a10.43,10.43,0,0,1,.56-2,1.5,1.5,0,0,0-1-.27,1.94,1.94,0,0,0-1.37.89c-0.42.59-1,2-.34,4.5,0.87,3.22,2.47,4.91,3.39,5.42a9.74,9.74,0,0,1-1.3-3.49A14.6,14.6,0,0,1,36.52,13.7Z"/>
    <path id="contour-2" data-name="contour" d="M49.71,29.12H46.87a0.39,0.39,0,0,0,0,.78h2.84A0.39,0.39,0,1,0,49.71,29.12ZM62.41,11.81a2.72,2.72,0,0,0-1.95-1.22,2.31,2.31,0,0,0-1.36.3,10,10,0,0,0-.95-1.56,7.74,7.74,0,0,0-2.89-2.47,10.44,10.44,0,0,0-4.34-.79c-0.72,0-1.39,0-1.94.08l-0.69,0H48.23l-0.6,0c-0.51,0-1.15-.07-1.83-0.07a10.91,10.91,0,0,0-4.53.82,7.74,7.74,0,0,0-2.89,2.47,10,10,0,0,0-1,1.59,2.31,2.31,0,0,0-1.4-.32,2.72,2.72,0,0,0-1.95,1.22c-0.5.71-1.22,2.31-.45,5.15a12.05,12.05,0,0,0,2.2,4.52,3.79,3.79,0,0,0,2.43,1.65,0.39,0.39,0,0,0,.16,0l0.17,0.2c0.63,0.72,1.25,1.38,1.85,2,1.88,2,3.49,3.72,4,5.92a6,6,0,0,0,.38,1.14,3.2,3.2,0,0,0,2,2,4.05,4.05,0,0,0,1.62.33,3.22,3.22,0,0,0,.69-0.06,3,3,0,0,0,.57-0.18,4.35,4.35,0,0,0,2.44-3.28c0.51-2.2,2.13-3.92,4-5.92,0.6-.64,1.23-1.3,1.85-2l0.15-.18,0.13,0a3.79,3.79,0,0,0,2.43-1.65A12.05,12.05,0,0,0,62.87,17C63.63,14.13,62.91,12.52,62.41,11.81Zm-28,5c-0.68-2.53-.08-3.9.34-4.5a1.94,1.94,0,0,1,1.37-.89,1.5,1.5,0,0,1,1,.27,10.43,10.43,0,0,0-.56,2,14.6,14.6,0,0,0-.07,5,9.74,9.74,0,0,0,1.3,3.49C36.83,21.72,35.23,20,34.37,16.81ZM37,17q0-.23,0-0.45Q37,16.76,37,17Zm1,4.13,0.16,0.31Zm0.18-10q0.12-.24.25-0.47Q38.22,10.88,38.1,11.12ZM50.92,6.76h0Zm-2.62.12h0Zm-0.09,0h0Zm-2.42-.1h0Zm-6.7,16.11q-0.2-.23-0.38-0.48,0.18,0.24.38,0.48l0.49,0.55Zm1.1-14.48,0.34-.27ZM41,7.8L40.78,8Zm0.52,17.77,0.62,0.67Zm2.55,3.17q0.16,0.27.31,0.54Q44.26,29,44.1,28.74Zm10.37-2.68,0.43-.47Zm1.14-8.69a21.65,21.65,0,0,1-.51,4.68c-0.33,1.17-.81,1.36-1.18,1.39a1.3,1.3,0,0,1-.9-0.68,15.27,15.27,0,0,1-1.09-1.7c-0.65-1.11-1-1.64-1.41-1.69a0.51,0.51,0,0,0-.44.17c-0.45.49-.12,1.22,0.26,2.07a5.74,5.74,0,0,1,.71,2.59,27.14,27.14,0,0,0,.14,3.61c0.07,0.9.14,1.76,0.14,2.53a4.65,4.65,0,0,1-.66,2.41,2,2,0,0,1-1.55,1.05H47.31c-1.31,0-2.22-1.81-2.22-3.44,0-.77.07-1.62,0.14-2.53a27.14,27.14,0,0,0,.14-3.61,5.74,5.74,0,0,1,.71-2.59c0.38-.85.71-1.58,0.26-2.07A0.51,0.51,0,0,0,46,19.39H45.9c-0.43,0-.76.58-1.41,1.69a15.27,15.27,0,0,1-1.09,1.7,1.3,1.3,0,0,1-.9.68c-0.37,0-.84-0.21-1.18-1.39a21.65,21.65,0,0,1-.51-4.68c-0.09-2.27.21-3.73,0.92-4.46a2.33,2.33,0,0,1,1.8-.63,5.34,5.34,0,0,1,2.87,1.37,5.27,5.27,0,0,0,1.69,1l0.06,0h0.07a4.7,4.7,0,0,0,1.81-1,5.34,5.34,0,0,1,2.87-1.37,2.33,2.33,0,0,1,1.8.63C55.4,13.64,55.71,15.1,55.62,17.37ZM55.49,7.75l0.25,0.16ZM56,8.09l0.34,0.27Zm1.44,14.75-0.49.55,0.49-.55q0.2-.23.38-0.48Q57.64,22.61,57.43,22.84ZM58.17,10.6q0.13,0.23.25,0.47Q58.31,10.83,58.17,10.6Zm0.27,10.77,0.16-.31Zm3.67-4.61c-0.84,3.14-2.39,4.83-3.32,5.38a9.75,9.75,0,0,0,1.27-3.45,14.6,14.6,0,0,0-.07-5,10.43,10.43,0,0,0-.58-2,1.52,1.52,0,0,1,1-.24,1.94,1.94,0,0,1,1.37.89C62.19,12.86,62.79,14.23,62.11,16.76Zm-10.19-.5a0.89,0.89,0,1,0,.89.89A0.89,0.89,0,0,0,51.92,16.26Zm-2.42,6.4-1.21,1.11-1.21-1.11a0.39,0.39,0,1,0-.53.58L48,24.57a0.39,0.39,0,0,0,.26.1h0a0.39,0.39,0,0,0,.26-0.1L50,23.24A0.39,0.39,0,1,0,49.5,22.66Zm-4.84-6.4a0.89,0.89,0,1,0,.89.89A0.89,0.89,0,0,0,44.66,16.26Z"/>
  </g>
  <g id="_6" data-name="6">
    <path id="face-color-3" data-name="face-color" class="cls-2" d="M6.3,22.18a6.66,6.66,0,0,1,0-3.37A2.6,2.6,0,0,0,3.6,21.22a2.44,2.44,0,0,0,1.71,2.23A8.1,8.1,0,0,1,6.3,22.18Zm15.23-3.37a6.66,6.66,0,0,1,0,3.37,8.11,8.11,0,0,1,1,1.24,2.42,2.42,0,0,0,1.62-2.2A2.58,2.58,0,0,0,21.53,18.81ZM19.34,23a4.82,4.82,0,0,0,.68-2.5c0-2.34-1.58-4.24-3.52-4.24A3.26,3.26,0,0,0,14,17.59a3.26,3.26,0,0,0-2.54-1.3c-1.94,0-3.52,1.9-3.52,4.24A4.83,4.83,0,0,0,8.55,23,6.14,6.14,0,0,0,5.26,28.1c0,3.62,3.86,6.56,8.63,6.56s8.63-2.94,8.63-6.56A6.1,6.1,0,0,0,19.34,23Zm-2.5-1.29a1.06,1.06,0,1,1-1.06,1.06A1.06,1.06,0,0,1,16.84,21.74Zm-4.36,3a0.44,0.44,0,0,1,.61.06l0.73,0.89,0.8-.9a0.44,0.44,0,1,1,.65.58l-1.14,1.29a0.44,0.44,0,0,1-.33.15h0a0.44,0.44,0,0,1-.33-0.16l-1.06-1.29A0.44,0.44,0,0,1,12.48,24.73Zm-1.46-3A1.06,1.06,0,1,1,10,22.79,1.06,1.06,0,0,1,11,21.74Zm9.56,6.75a12.82,12.82,0,0,1-6.82,2.13H13.58a11.13,11.13,0,0,1-6.47-2.14,0.44,0.44,0,0,1,.55-0.67,10.45,10.45,0,0,0,5.94,1.95,12.13,12.13,0,0,0,6.48-2A0.44,0.44,0,0,1,20.57,28.48Z"/>
    <path id="contour-3" data-name="contour" d="M25.17,21.22a3.62,3.62,0,0,0-3.77-3.43H21.17a7.87,7.87,0,0,0-7.25-4.46A7.86,7.86,0,0,0,6.68,17.8H6.35a3.62,3.62,0,0,0-3.77,3.43,3.44,3.44,0,0,0,2.24,3.14,6.83,6.83,0,0,0-.62,2.83c0,4.45,4.35,8.06,9.72,8.06s9.72-3.61,9.72-8.06A6.83,6.83,0,0,0,23,24.32,3.43,3.43,0,0,0,25.17,21.22Zm-21.57,0a2.6,2.6,0,0,1,2.72-2.41,6.66,6.66,0,0,0,0,3.37,8.1,8.1,0,0,0-1,1.27A2.44,2.44,0,0,1,3.6,21.22ZM13.89,34.66c-4.76,0-8.63-2.94-8.63-6.56A6.14,6.14,0,0,1,8.55,23a4.83,4.83,0,0,1-.64-2.43c0-2.34,1.58-4.24,3.52-4.24A3.26,3.26,0,0,1,14,17.59a3.26,3.26,0,0,1,2.54-1.3c1.94,0,3.52,1.9,3.52,4.24a4.82,4.82,0,0,1-.68,2.5,6.1,6.1,0,0,1,3.17,5.08C22.52,31.72,18.65,34.66,13.89,34.66Zm8.64-11.24a8.11,8.11,0,0,0-1-1.24,6.66,6.66,0,0,0,0-3.37,2.58,2.58,0,0,1,2.61,2.41A2.42,2.42,0,0,1,22.52,23.42Zm-9,3.21a0.44,0.44,0,0,0,.33.16h0a0.44,0.44,0,0,0,.33-0.15l1.14-1.29a0.44,0.44,0,1,0-.65-0.58l-0.8.9-0.73-.89a0.44,0.44,0,1,0-.67.55Zm3.36-2.77a1.06,1.06,0,1,0-1.06-1.06A1.06,1.06,0,0,0,16.84,23.85Zm-5.83,0A1.06,1.06,0,1,0,10,22.79,1.06,1.06,0,0,0,11,23.85Zm9.06,3.92a12.13,12.13,0,0,1-6.48,2,10.45,10.45,0,0,1-5.94-1.95,0.44,0.44,0,0,0-.55.67,11.13,11.13,0,0,0,6.47,2.14h0.17a12.82,12.82,0,0,0,6.82-2.13A0.44,0.44,0,0,0,20.07,27.78Z"/>
  </g>
  <g id="_5" data-name="5">
    <path id="face-color-4" data-name="face-color" class="cls-2" d="M56.87,22.75a8.17,8.17,0,0,1,0-4.14,3.19,3.19,0,0,0-3.34,3,3,3,0,0,0,2.1,2.74A9.94,9.94,0,0,1,56.87,22.75Zm18.7-4.14a8.17,8.17,0,0,1,0,4.14,10,10,0,0,1,1.2,1.52,3,3,0,0,0,2-2.7A3.17,3.17,0,0,0,75.57,18.61Zm-2.69,5.17a5.92,5.92,0,0,0,.83-3.07c0-2.87-1.93-5.2-4.32-5.2a4,4,0,0,0-3.11,1.6,4,4,0,0,0-3.11-1.6c-2.39,0-4.32,2.33-4.32,5.2a5.94,5.94,0,0,0,.78,3,7.54,7.54,0,0,0-4,6.32c0,4.45,4.74,8.05,10.59,8.05S76.77,34.46,76.77,30A7.5,7.5,0,0,0,72.88,23.78ZM69.81,22.2a1.3,1.3,0,1,1-1.3,1.3A1.3,1.3,0,0,1,69.81,22.2Zm-5.36,3.68a0.53,0.53,0,0,1,.75.07L66.1,27l1-1.11a0.53,0.53,0,0,1,.8.71l-1.39,1.58a0.53,0.53,0,0,1-.4.18h0a0.53,0.53,0,0,1-.4-0.19l-1.3-1.58A0.53,0.53,0,0,1,64.45,25.87Zm-1.8-3.68a1.3,1.3,0,1,1-1.3,1.3A1.3,1.3,0,0,1,62.65,22.2Zm11.74,8.29A15.74,15.74,0,0,1,66,33.1H65.8a13.66,13.66,0,0,1-7.95-2.63,0.53,0.53,0,0,1,.68-0.83A12.83,12.83,0,0,0,65.82,32a14.9,14.9,0,0,0,8-2.41A0.53,0.53,0,0,1,74.39,30.48Z"/>
    <path id="contour-4" data-name="contour" d="M80,21.56a4.45,4.45,0,0,0-4.63-4.22H75.13a10,10,0,0,0-17.8,0l-0.4,0a4.45,4.45,0,0,0-4.63,4.22A4.23,4.23,0,0,0,55,25.41a8.38,8.38,0,0,0-.76,3.47c0,5.46,5.35,9.89,11.94,9.89s11.94-4.43,11.94-9.89a8.39,8.39,0,0,0-.78-3.52A4.21,4.21,0,0,0,80,21.56Zm-26.48,0a3.19,3.19,0,0,1,3.34-3,8.17,8.17,0,0,0,0,4.14,9.94,9.94,0,0,0-1.22,1.56A3,3,0,0,1,53.55,21.56Zm12.63,16.5c-5.85,0-10.59-3.6-10.59-8.05a7.54,7.54,0,0,1,4-6.32,5.94,5.94,0,0,1-.78-3c0-2.87,1.93-5.2,4.32-5.2a4,4,0,0,1,3.11,1.6,4,4,0,0,1,3.11-1.6c2.39,0,4.32,2.33,4.32,5.2a5.92,5.92,0,0,1-.83,3.07A7.5,7.5,0,0,1,76.77,30C76.77,34.46,72,38.07,66.18,38.07Zm10.6-13.81a10,10,0,0,0-1.2-1.52,8.17,8.17,0,0,0,0-4.14,3.17,3.17,0,0,1,3.21,3A3,3,0,0,1,76.79,24.26ZM65.68,28.21a0.53,0.53,0,0,0,.4.19h0a0.53,0.53,0,0,0,.4-0.18l1.39-1.58a0.53,0.53,0,0,0-.8-0.71L66.1,27l-0.9-1.1a0.53,0.53,0,1,0-.82.68Zm4.13-3.41a1.3,1.3,0,1,0-1.3-1.3A1.3,1.3,0,0,0,69.81,24.8Zm-7.16,0a1.3,1.3,0,1,0-1.3-1.3A1.3,1.3,0,0,0,62.65,24.8Zm11.12,4.82a14.9,14.9,0,0,1-8,2.41,12.83,12.83,0,0,1-7.29-2.39,0.53,0.53,0,0,0-.68.83,13.66,13.66,0,0,0,7.95,2.63H66a15.74,15.74,0,0,0,8.38-2.61A0.53,0.53,0,0,0,73.77,29.61Z"/>
  </g>
  <g id="_4" data-name="4">
    <path id="face-color-5" data-name="face-color" class="cls-2" d="M23.86,26.57a8.17,8.17,0,0,1,0-4.14,3.19,3.19,0,0,0-3.34,3,3,3,0,0,0,2.1,2.74A9.94,9.94,0,0,1,23.86,26.57Zm18.7-4.14a8.17,8.17,0,0,1,0,4.14,10,10,0,0,1,1.2,1.52,3,3,0,0,0,2-2.7A3.17,3.17,0,0,0,42.56,22.43Zm-2.69,5.17a5.92,5.92,0,0,0,.83-3.07c0-2.87-1.93-5.2-4.32-5.2a4,4,0,0,0-3.11,1.6,4,4,0,0,0-3.11-1.6c-2.39,0-4.32,2.33-4.32,5.2a5.94,5.94,0,0,0,.78,3,7.54,7.54,0,0,0-4,6.32c0,4.45,4.74,8.05,10.59,8.05s10.59-3.6,10.59-8.05A7.5,7.5,0,0,0,39.87,27.61ZM36.8,26a1.3,1.3,0,1,1-1.3,1.3A1.3,1.3,0,0,1,36.8,26ZM31.44,29.7a0.53,0.53,0,0,1,.75.07l0.9,1.1,1-1.11a0.53,0.53,0,1,1,.8.71L33.48,32a0.53,0.53,0,0,1-.4.18h0a0.53,0.53,0,0,1-.4-0.19l-1.3-1.58A0.53,0.53,0,0,1,31.44,29.7ZM29.64,26a1.3,1.3,0,1,1-1.3,1.3A1.3,1.3,0,0,1,29.64,26Zm11.74,8.29A15.74,15.74,0,0,1,33,36.92H32.8a13.66,13.66,0,0,1-7.95-2.63,0.53,0.53,0,0,1,.68-0.83,12.83,12.83,0,0,0,7.29,2.39,14.9,14.9,0,0,0,8-2.41A0.53,0.53,0,0,1,41.38,34.31Z"/>
    <path id="contour-5" data-name="contour" d="M47,25.39a4.45,4.45,0,0,0-4.63-4.22H42.12a9.66,9.66,0,0,0-8.9-5.47,9.66,9.66,0,0,0-8.9,5.48l-0.4,0a4.45,4.45,0,0,0-4.63,4.22A4.23,4.23,0,0,0,22,29.24a8.38,8.38,0,0,0-.76,3.47c0,5.46,5.35,9.89,11.94,9.89s11.94-4.43,11.94-9.89a8.39,8.39,0,0,0-.78-3.52A4.21,4.21,0,0,0,47,25.39Zm-26.48,0a3.19,3.19,0,0,1,3.34-3,8.17,8.17,0,0,0,0,4.14,9.94,9.94,0,0,0-1.22,1.56A3,3,0,0,1,20.54,25.39ZM33.18,41.9c-5.85,0-10.59-3.6-10.59-8.05a7.54,7.54,0,0,1,4-6.32,5.94,5.94,0,0,1-.78-3c0-2.87,1.93-5.2,4.32-5.2a4,4,0,0,1,3.11,1.6,4,4,0,0,1,3.11-1.6c2.39,0,4.32,2.33,4.32,5.2a5.92,5.92,0,0,1-.83,3.07,7.5,7.5,0,0,1,3.9,6.24C43.77,38.29,39,41.9,33.18,41.9Zm10.6-13.81a10,10,0,0,0-1.2-1.52,8.17,8.17,0,0,0,0-4.14,3.17,3.17,0,0,1,3.21,3A3,3,0,0,1,43.78,28.09ZM32.67,32a0.53,0.53,0,0,0,.4.19h0a0.53,0.53,0,0,0,.4-0.18l1.39-1.58a0.53,0.53,0,1,0-.8-0.71l-1,1.11-0.9-1.1a0.53,0.53,0,0,0-.82.68Zm4.13-3.41a1.3,1.3,0,1,0-1.3-1.3A1.3,1.3,0,0,0,36.8,28.63Zm-7.16,0a1.3,1.3,0,1,0-1.3-1.3A1.3,1.3,0,0,0,29.64,28.63Zm11.12,4.82a14.9,14.9,0,0,1-8,2.41,12.83,12.83,0,0,1-7.29-2.39,0.53,0.53,0,0,0-.68.83,13.66,13.66,0,0,0,7.95,2.63H33a15.74,15.74,0,0,0,8.38-2.61A0.53,0.53,0,0,0,40.76,33.44Z"/>
  </g>
  <g id="_3" data-name="3">
    <path id="face-color-6" data-name="face-color" class="cls-1" d="M64.54,35.42c-1.49,0-2.91,1.06-4.17,2a6.82,6.82,0,0,1-2.63,1.47h-0.1l-0.09,0a7.66,7.66,0,0,1-2.46-1.43c-1.26-.93-2.69-2-4.17-2a3.39,3.39,0,0,0-2.61.92c-1,1.07-1.46,3.19-1.34,6.48a31.45,31.45,0,0,0,.74,6.8c0.49,1.71,1.17,2,1.71,2a1.88,1.88,0,0,0,1.31-1,22.18,22.18,0,0,0,1.58-2.47c0.94-1.61,1.42-2.39,2-2.46h0.08A0.75,0.75,0,0,1,55,46c0.66,0.72.18,1.78-.38,3a8.33,8.33,0,0,0-1,3.77,39.43,39.43,0,0,1-.2,5.25c-0.11,1.31-.21,2.55-0.21,3.67,0,2.36,1.32,5,3.22,5H59a2.88,2.88,0,0,0,2.26-1.53,6.75,6.75,0,0,0,1-3.5c0-1.12-.1-2.36-0.21-3.67a39.42,39.42,0,0,1-.2-5.25,8.33,8.33,0,0,0-1-3.77c-0.56-1.23-1-2.29-.38-3a0.74,0.74,0,0,1,.64-0.25c0.63,0.07,1.11.85,2,2.46a22.18,22.18,0,0,0,1.58,2.47,1.88,1.88,0,0,0,1.31,1c0.54,0,1.23-.31,1.71-2a31.45,31.45,0,0,0,.74-6.8c0.13-3.29-.31-5.41-1.34-6.48A3.39,3.39,0,0,0,64.54,35.42Zm-12,8.37a1.29,1.29,0,1,1,1.29-1.29A1.29,1.29,0,0,1,52.57,43.8ZM59.91,61H55.78a0.57,0.57,0,0,1,0-1.14h4.13A0.57,0.57,0,1,1,59.91,61Zm0.5-10.49a0.57,0.57,0,0,1,0,.8l-2.12,1.94a0.57,0.57,0,0,1-.38.15h0a0.57,0.57,0,0,1-.38-0.15l-2.12-1.94a0.57,0.57,0,1,1,.77-0.84l1.76,1.61,1.76-1.61A0.57,0.57,0,0,1,60.41,50.54Zm2.72-6.75a1.29,1.29,0,1,1,1.29-1.29A1.29,1.29,0,0,1,63.12,43.8Zm14.31-8.39a2.82,2.82,0,0,0-2-1.29,2.21,2.21,0,0,0-1.42.35,15.16,15.16,0,0,1,.84,3,21.22,21.22,0,0,1,.1,7.31,14.17,14.17,0,0,1-1.85,5c1.35-.8,3.59-3.26,4.82-7.81C78.91,38.27,78,36.27,77.44,35.41ZM40.75,37.5a15.16,15.16,0,0,1,.82-2.92,2.19,2.19,0,0,0-1.47-.39,2.82,2.82,0,0,0-2,1.29c-0.61.86-1.48,2.86-.49,6.53,1.26,4.68,3.58,7.14,4.92,7.87a14.14,14.14,0,0,1-1.89-5.07A21.22,21.22,0,0,1,40.75,37.5Z"/>
    <path id="contour-6" data-name="contour" d="M59.91,59.9H55.78a0.57,0.57,0,0,0,0,1.14h4.13A0.57,0.57,0,1,0,59.91,59.9ZM78.37,34.75A4,4,0,0,0,75.53,33a3.35,3.35,0,0,0-2,.44,14.55,14.55,0,0,0-1.37-2.27A11.24,11.24,0,0,0,68,27.56a15.17,15.17,0,0,0-6.31-1.15c-1,0-2,.06-2.81.11l-1,.06h-0.1l-0.88,0c-0.74,0-1.67-.09-2.66-0.09a15.85,15.85,0,0,0-6.59,1.19,11.24,11.24,0,0,0-4.2,3.59A14.56,14.56,0,0,0,42,33.53a3.35,3.35,0,0,0-2-.47,4,4,0,0,0-2.83,1.77c-0.72,1-1.77,3.36-.66,7.48a17.51,17.51,0,0,0,3.2,6.56c1.22,1.5,2.54,2.4,3.53,2.4a0.57,0.57,0,0,0,.23-0.05l0.24,0.29c0.91,1,1.82,2,2.69,2.94,2.72,2.9,5.08,5.4,5.82,8.59a8.67,8.67,0,0,0,.56,1.66,4.65,4.65,0,0,0,2.85,2.9,5.89,5.89,0,0,0,2.35.48A4.67,4.67,0,0,0,59,68a4.3,4.3,0,0,0,.82-0.26c1.26-.52,2.87-1.83,3.55-4.76,0.74-3.2,3.09-5.7,5.82-8.59,0.88-.93,1.78-1.89,2.69-2.94l0.22-.27a0.57,0.57,0,0,0,.18,0c1,0,2.31-.9,3.54-2.4A17.51,17.51,0,0,0,79,42.24C80.13,38.12,79.09,35.78,78.37,34.75ZM37.62,42c-1-3.67-.12-5.67.49-6.53a2.82,2.82,0,0,1,2-1.29,2.19,2.19,0,0,1,1.47.39,15.16,15.16,0,0,0-.82,2.92,21.22,21.22,0,0,0-.1,7.31,14.14,14.14,0,0,0,1.89,5.07C41.2,49.15,38.88,46.69,37.62,42Zm3.77,0.25q0-.33,0-0.66Q41.38,41.94,41.39,42.27Zm1.39,6L43,48.72ZM43,33.75q0.18-.35.37-0.68Q43.22,33.4,43,33.75Zm18.64-6.34h0Zm-3.8.17h0Zm-0.14,0h0Zm-3.52-.14h0ZM44.48,50.85q-0.29-.34-0.56-0.69,0.26,0.35.56,0.69l0.71,0.8Zm1.6-21,0.49-.39Zm1.23-.89-0.37.23Zm0.75,25.81,0.9,1Zm3.7,4.61q0.24,0.39.45,0.79Q52,59.73,51.76,59.35Zm15.07-3.9,0.63-.68Zm1.66-12.62a31.45,31.45,0,0,1-.74,6.8c-0.49,1.71-1.17,2-1.71,2a1.88,1.88,0,0,1-1.31-1,22.18,22.18,0,0,1-1.58-2.47c-0.94-1.61-1.42-2.39-2-2.46a0.74,0.74,0,0,0-.64.25c-0.66.72-.18,1.78,0.38,3a8.33,8.33,0,0,1,1,3.77,39.42,39.42,0,0,0,.2,5.25c0.11,1.31.21,2.55,0.21,3.67a6.75,6.75,0,0,1-1,3.5A2.88,2.88,0,0,1,59,66.7H56.42c-1.9,0-3.22-2.63-3.22-5,0-1.12.1-2.36,0.21-3.67a39.43,39.43,0,0,0,.2-5.25,8.33,8.33,0,0,1,1-3.77c0.56-1.23,1-2.29.38-3a0.75,0.75,0,0,0-.56-0.25H54.37c-0.63.07-1.11,0.85-2,2.46a22.18,22.18,0,0,1-1.58,2.47,1.88,1.88,0,0,1-1.31,1c-0.54,0-1.23-.31-1.71-2a31.45,31.45,0,0,1-.74-6.8c-0.13-3.29.31-5.41,1.34-6.48a3.39,3.39,0,0,1,2.61-.92c1.49,0,2.91,1.06,4.17,2a7.66,7.66,0,0,0,2.46,1.43l0.09,0h0.1a6.82,6.82,0,0,0,2.63-1.47c1.26-.93,2.69-2,4.17-2a3.39,3.39,0,0,1,2.61.92C68.18,37.41,68.62,39.53,68.49,42.83Zm-0.19-14,0.37,0.23ZM69,29.35l0.49,0.39Zm2.09,21.43-0.71.8,0.71-.8q0.29-.34.56-0.69Q71.42,50.44,71.13,50.78ZM72.21,33q0.19,0.33.37,0.68Q72.4,33.33,72.21,33Zm0.4,15.65,0.23-.45Zm5.32-6.7c-1.23,4.55-3.47,7-4.82,7.81a14.17,14.17,0,0,0,1.85-5,21.22,21.22,0,0,0-.1-7.31,15.16,15.16,0,0,0-.84-3,2.21,2.21,0,0,1,1.42-.35,2.82,2.82,0,0,1,2,1.29C78,36.27,78.91,38.27,77.93,41.94Zm-14.8-.73a1.29,1.29,0,1,0,1.29,1.29A1.29,1.29,0,0,0,63.12,41.21Zm-3.52,9.3-1.76,1.61-1.76-1.61a0.57,0.57,0,1,0-.77.84l2.12,1.94a0.57,0.57,0,0,0,.38.15h0a0.57,0.57,0,0,0,.38-0.15l2.12-1.94A0.57,0.57,0,1,0,59.6,50.51Zm-7-9.3a1.29,1.29,0,1,0,1.29,1.29A1.29,1.29,0,0,0,52.57,41.21Z"/>
  </g>
  <g id="_2" data-name="2">
    <path id="face-color-7" data-name="face-color" class="cls-1" d="M24.67,40.14c-1.29,0-2.52.91-3.61,1.72a5.9,5.9,0,0,1-2.28,1.27H18.7l-0.08,0a6.63,6.63,0,0,1-2.13-1.24c-1.09-.81-2.33-1.72-3.61-1.72a2.93,2.93,0,0,0-2.26.8c-0.89.92-1.27,2.76-1.16,5.61a27.22,27.22,0,0,0,.64,5.89c0.42,1.48,1,1.71,1.48,1.74a1.63,1.63,0,0,0,1.14-.85,19.2,19.2,0,0,0,1.37-2.14c0.81-1.39,1.23-2.07,1.77-2.13h0.07a0.65,0.65,0,0,1,.48.22c0.57,0.62.15,1.54-.33,2.6a7.21,7.21,0,0,0-.89,3.26A34.13,34.13,0,0,1,15,59.71c-0.09,1.14-.18,2.21-0.18,3.18,0,2,1.14,4.33,2.79,4.33h2.27a2.49,2.49,0,0,0,2-1.32,5.84,5.84,0,0,0,.83-3c0-1-.09-2-0.18-3.18a34.12,34.12,0,0,1-.17-4.54,7.21,7.21,0,0,0-.89-3.26c-0.48-1.06-.9-2-0.33-2.6a0.64,0.64,0,0,1,.55-0.22c0.54,0.06,1,.73,1.77,2.13a19.19,19.19,0,0,0,1.37,2.14,1.63,1.63,0,0,0,1.14.85c0.47,0,1.06-.27,1.48-1.74a27.22,27.22,0,0,0,.64-5.89c0.11-2.85-.27-4.68-1.16-5.61A2.93,2.93,0,0,0,24.67,40.14ZM14.31,47.39a1.12,1.12,0,1,1,1.12-1.12A1.12,1.12,0,0,1,14.31,47.39Zm6.35,14.92H17.09a0.49,0.49,0,0,1,0-1h3.57A0.49,0.49,0,1,1,20.66,62.31Zm0.43-9.08a0.49,0.49,0,0,1,0,.7L19.22,55.6a0.49,0.49,0,0,1-.33.13h0a0.49,0.49,0,0,1-.33-0.13l-1.84-1.68a0.49,0.49,0,1,1,.66-0.73l1.52,1.39L20.4,53.2A0.49,0.49,0,0,1,21.09,53.23Zm2.35-5.84a1.12,1.12,0,1,1,1.12-1.12A1.12,1.12,0,0,1,23.44,47.39Zm12.39-7.26A2.44,2.44,0,0,0,34.1,39a1.91,1.91,0,0,0-1.23.3,13.12,13.12,0,0,1,.72,2.56,18.36,18.36,0,0,1,.09,6.33,12.26,12.26,0,0,1-1.6,4.34c1.17-.7,3.11-2.82,4.17-6.76C37.11,42.6,36.35,40.88,35.83,40.13ZM4.08,41.94a13.12,13.12,0,0,1,.71-2.53,1.89,1.89,0,0,0-1.27-.34,2.44,2.44,0,0,0-1.73,1.11c-0.53.75-1.28,2.48-.42,5.65,1.09,4,3.1,6.18,4.26,6.81A12.24,12.24,0,0,1,4,48.27,18.36,18.36,0,0,1,4.08,41.94Z"/>
    <path id="contour-7" data-name="contour" d="M20.66,61.32H17.09a0.49,0.49,0,0,0,0,1h3.57A0.49,0.49,0,1,0,20.66,61.32Zm16-21.76A3.41,3.41,0,0,0,34.18,38a2.9,2.9,0,0,0-1.71.38,12.59,12.59,0,0,0-1.19-2,9.73,9.73,0,0,0-3.64-3.11,13.13,13.13,0,0,0-5.46-1c-0.9,0-1.75.05-2.43,0.1l-0.87,0H18.8l-0.76,0c-0.64,0-1.44-.08-2.31-0.08a13.72,13.72,0,0,0-5.7,1A9.73,9.73,0,0,0,6.4,36.51a12.6,12.6,0,0,0-1.2,2,2.9,2.9,0,0,0-1.75-.41A3.41,3.41,0,0,0,1,39.62c-0.62.89-1.53,2.91-.57,6.48a15.15,15.15,0,0,0,2.77,5.68c1.06,1.3,2.2,2.07,3.06,2.07a0.49,0.49,0,0,0,.2,0l0.21,0.25C7.45,55,8.23,55.79,9,56.6c2.36,2.51,4.39,4.67,5,7.44a7.5,7.5,0,0,0,.48,1.44A4,4,0,0,0,17,68a5.09,5.09,0,0,0,2,.41,4,4,0,0,0,.87-0.08,3.72,3.72,0,0,0,.71-0.23A5.47,5.47,0,0,0,23.66,64c0.64-2.77,2.68-4.93,5-7.44C29.45,55.73,30.23,54.9,31,54l0.19-.23,0.16,0c0.86,0,2-.78,3.06-2.07A15.15,15.15,0,0,0,37.2,46C38.16,42.47,37.26,40.45,36.63,39.56ZM1.37,45.84c-0.86-3.18-.1-4.91.42-5.65a2.44,2.44,0,0,1,1.73-1.11,1.89,1.89,0,0,1,1.27.34,13.12,13.12,0,0,0-.71,2.53A18.36,18.36,0,0,0,4,48.27a12.24,12.24,0,0,0,1.63,4.39C4.47,52,2.46,49.89,1.37,45.84Zm3.26,0.22q0-.28,0-0.57Q4.62,45.78,4.63,46.06Zm1.2,5.19L6,51.65ZM6.06,38.69q0.15-.3.32-0.59Q6.21,38.39,6.06,38.69Zm16.13-5.48h0Zm-3.29.15h0Zm-0.12,0h0Zm-3-.12h0ZM7.31,53.49q-0.25-.29-0.48-0.6,0.23,0.31.48,0.6l0.62,0.7ZM8.7,35.28l0.42-.34Zm1.06-.77-0.32.2Zm0.65,22.34,0.77,0.85Zm3.2,4q0.2,0.34.39,0.68Q13.81,61.18,13.61,60.84Zm13-3.37,0.54-.59Zm1.44-10.92a27.22,27.22,0,0,1-.64,5.89c-0.42,1.48-1,1.71-1.48,1.74a1.63,1.63,0,0,1-1.14-.85,19.19,19.19,0,0,1-1.37-2.14c-0.81-1.39-1.23-2.07-1.77-2.13a0.64,0.64,0,0,0-.55.22c-0.57.62-.15,1.54,0.33,2.6a7.21,7.21,0,0,1,.89,3.26,34.12,34.12,0,0,0,.17,4.54c0.09,1.14.18,2.21,0.18,3.18a5.84,5.84,0,0,1-.83,3,2.49,2.49,0,0,1-2,1.32H17.64c-1.64,0-2.79-2.28-2.79-4.33,0-1,.09-2,0.18-3.18a34.13,34.13,0,0,0,.17-4.54,7.21,7.21,0,0,1,.89-3.26c0.48-1.06.9-2,.33-2.6a0.65,0.65,0,0,0-.48-0.22H15.87c-0.54.06-1,.73-1.77,2.13a19.2,19.2,0,0,1-1.37,2.14,1.63,1.63,0,0,1-1.14.85c-0.47,0-1.06-.27-1.48-1.74a27.22,27.22,0,0,1-.64-5.89c-0.11-2.85.27-4.68,1.16-5.61a2.93,2.93,0,0,1,2.26-.8c1.29,0,2.52.91,3.61,1.72a6.63,6.63,0,0,0,2.13,1.24l0.08,0h0.08a5.9,5.9,0,0,0,2.28-1.27c1.09-.81,2.33-1.72,3.61-1.72a2.93,2.93,0,0,1,2.26.8C27.82,41.86,28.2,43.7,28.09,46.55ZM27.93,34.45l0.32,0.2Zm0.64,0.43L29,35.22Zm1.81,18.55-0.62.7,0.62-.7q0.25-.29.48-0.6Q30.63,53.14,30.37,53.43ZM31.3,38q0.17,0.29.32,0.59Q31.47,38.33,31.3,38Zm0.34,13.55,0.2-.39Zm4.61-5.8c-1.06,3.94-3,6.07-4.17,6.76a12.26,12.26,0,0,0,1.6-4.34,18.36,18.36,0,0,0-.09-6.33,13.12,13.12,0,0,0-.72-2.56A1.91,1.91,0,0,1,34.1,39a2.44,2.44,0,0,1,1.73,1.11C36.35,40.88,37.11,42.6,36.25,45.78Zm-12.81-.63a1.12,1.12,0,1,0,1.12,1.12A1.12,1.12,0,0,0,23.44,45.15Zm-3,8-1.52,1.39L17.35,53.2a0.49,0.49,0,1,0-.66.73l1.84,1.68a0.49,0.49,0,0,0,.33.13h0a0.49,0.49,0,0,0,.33-0.13l1.84-1.68A0.49,0.49,0,1,0,20.4,53.2Zm-6.09-8a1.12,1.12,0,1,0,1.12,1.12A1.12,1.12,0,0,0,14.31,45.15Z"/>
  </g>
  <g id="_1" data-name="1">
    <path id="face-color-8" data-name="face-color" class="cls-2" d="M25,56.64a10.75,10.75,0,0,1,0-5.45,4.19,4.19,0,0,0-4.39,3.89,3.94,3.94,0,0,0,2.76,3.6A13.07,13.07,0,0,1,25,56.64ZM49.6,51.19a10.75,10.75,0,0,1,0,5.44,13.09,13.09,0,0,1,1.57,2,3.91,3.91,0,0,0,2.62-3.55A4.17,4.17,0,0,0,49.6,51.19ZM46.06,58a7.78,7.78,0,0,0,1.09-4c0-3.78-2.54-6.84-5.68-6.84a5.26,5.26,0,0,0-4.09,2.1,5.26,5.26,0,0,0-4.09-2.1c-3.14,0-5.68,3.06-5.68,6.84a7.81,7.81,0,0,0,1,3.92c-3.23,1.94-5.3,4.94-5.3,8.31,0,5.85,6.24,10.59,13.93,10.59S51.18,72,51.18,66.2C51.18,62.89,49.19,59.94,46.06,58Zm-4-2.08a1.71,1.71,0,1,1-1.71,1.71A1.71,1.71,0,0,1,42,55.92Zm-7,4.83a0.7,0.7,0,0,1,1,.1l1.19,1.44,1.29-1.46a0.7,0.7,0,1,1,1.05.93l-1.83,2.08a0.7,0.7,0,0,1-.53.24h0a0.7,0.7,0,0,1-.53-0.26l-1.71-2.08A0.7,0.7,0,0,1,35,60.75Zm-2.36-4.83a1.71,1.71,0,1,1-1.71,1.71A1.71,1.71,0,0,1,32.61,55.92ZM48,66.81a20.69,20.69,0,0,1-11,3.43H36.75A18,18,0,0,1,26.3,66.79a0.7,0.7,0,0,1,.89-1.09,16.87,16.87,0,0,0,9.59,3.14,19.59,19.59,0,0,0,10.46-3.17A0.7,0.7,0,0,1,48,66.81Z"/>
    <path id="contour-8" data-name="contour" d="M55.47,55.08a5.85,5.85,0,0,0-6.09-5.54H49a12.7,12.7,0,0,0-11.7-7.19,12.7,12.7,0,0,0-11.7,7.21l-0.52,0A5.85,5.85,0,0,0,19,55.08a5.56,5.56,0,0,0,3.62,5.06,11,11,0,0,0-1,4.57c0,7.19,7,13,15.7,13S53,71.9,53,64.71a11,11,0,0,0-1-4.63A5.54,5.54,0,0,0,55.47,55.08Zm-34.82,0A4.19,4.19,0,0,1,25,51.19a10.75,10.75,0,0,0,0,5.45,13.07,13.07,0,0,0-1.61,2A3.94,3.94,0,0,1,20.64,55.08Zm16.61,21.7c-7.69,0-13.93-4.74-13.93-10.59,0-3.37,2.07-6.37,5.3-8.31a7.81,7.81,0,0,1-1-3.92c0-3.78,2.54-6.84,5.68-6.84a5.26,5.26,0,0,1,4.09,2.1,5.26,5.26,0,0,1,4.09-2.1c3.14,0,5.68,3.06,5.68,6.84a7.78,7.78,0,0,1-1.09,4c3.13,1.94,5.12,4.9,5.12,8.2C51.18,72,44.95,76.79,37.25,76.79ZM51.2,58.63a13.09,13.09,0,0,0-1.57-2,10.75,10.75,0,0,0,0-5.44,4.17,4.17,0,0,1,4.22,3.89A3.91,3.91,0,0,1,51.2,58.63ZM36.59,63.82a0.7,0.7,0,0,0,.53.26h0a0.7,0.7,0,0,0,.53-0.24l1.83-2.08a0.7,0.7,0,1,0-1.05-.93l-1.29,1.46L36,60.85a0.7,0.7,0,1,0-1.08.89ZM42,59.34a1.71,1.71,0,1,0-1.71-1.71A1.71,1.71,0,0,0,42,59.34Zm-9.41,0a1.71,1.71,0,1,0-1.71-1.71A1.71,1.71,0,0,0,32.61,59.34Zm14.62,6.33a19.59,19.59,0,0,1-10.46,3.17,16.87,16.87,0,0,1-9.59-3.14,0.7,0.7,0,0,0-.89,1.09,18,18,0,0,0,10.45,3.46H37a20.69,20.69,0,0,0,11-3.43A0.7,0.7,0,0,0,47.23,65.67Z"/>
  </g>
</svg>
