<svg id="icon_old_ape" xmlns="http://www.w3.org/2000/svg" viewBox="0 0 80.05 76.71">
  <defs>
    <style>
      .cls-1 {
        fill: #7c522e;
      }
    </style>
  </defs>
  <title>old_ape</title>
  <path id="face-color" class="cls-1" d="M52.5,16.59c-2.74,0-5.37,1.94-7.68,3.66C43,21.57,41.47,22.72,40,22.94l-0.18,0-0.17,0a14.11,14.11,0,0,1-4.52-2.64c-2.31-1.71-4.94-3.66-7.68-3.66a6.22,6.22,0,0,0-4.81,1.7c-1.89,2-2.7,5.87-2.46,11.93,0.24,6.29.65,10,1.36,12.53,0.89,3.14,2.15,3.63,3.15,3.71,0.42,0,1.18-.26,2.42-1.82A40.74,40.74,0,0,0,30,40.15c1.73-3,2.61-4.4,3.77-4.52h0.15a1.38,1.38,0,0,1,1,.47c1.21,1.32.33,3.27-.69,5.54-1,2.1-2,4.5-1.9,6.93A72.68,72.68,0,0,1,32,58.23c-0.2,2.42-.38,4.7-0.38,6.76,0,4.35,2.43,9.2,5.93,9.2h4.84c2.08,0,3.5-1.76,4.15-2.81a12.44,12.44,0,0,0,1.77-6.44c0-2.06-.18-4.34-0.38-6.76a72.91,72.91,0,0,1-.36-9.67c0.14-2.43-.94-4.83-1.89-6.93-1-2.26-1.91-4.22-.69-5.54a1.37,1.37,0,0,1,1.18-.46c1.16,0.13,2,1.56,3.77,4.52a40.88,40.88,0,0,0,2.92,4.54c1.24,1.56,2,1.85,2.42,1.82,1-.08,2.26-0.57,3.15-3.71,0.71-2.49,1.12-6.24,1.36-12.53,0.24-6.06-.57-10-2.46-11.93A6.24,6.24,0,0,0,52.5,16.59ZM30.45,32a2.38,2.38,0,1,1,2.38-2.38h0A2.38,2.38,0,0,1,30.45,32ZM44,63.75h-7.6a1,1,0,0,1,0-2.1H44A1,1,0,0,1,44,63.75Zm0.92-19.32a1,1,0,0,1-.07,1.48L40.9,49.48a1,1,0,0,1-.71.28H40.13a1,1,0,0,1-.71-0.28l-3.91-3.57a1,1,0,0,1,1.41-1.55l3.24,3,3.24-3a1,1,0,0,1,1.48.07h0Zm5-12.43a2.38,2.38,0,1,1,2.39-2.38A2.38,2.38,0,0,1,49.88,32h0ZM76.23,16.56a5.19,5.19,0,0,0-3.67-2.37,4.07,4.07,0,0,0-2.61.65,27.91,27.91,0,0,1,1.54,5.44,39.06,39.06,0,0,1,.19,13.47A26.17,26.17,0,0,1,68.27,43c2.49-1.48,6.61-6,8.87-14.39C79,21.83,77.35,18.15,76.23,16.56ZM8.69,20.41A27.91,27.91,0,0,1,10.2,15a4,4,0,0,0-2.71-.72A5.17,5.17,0,0,0,3.82,16.7c-1.12,1.59-2.72,5.27-.9,12,2.32,8.6,6.6,13.14,9.06,14.5A26,26,0,0,1,8.5,33.88,39.06,39.06,0,0,1,8.69,20.41Z"/>
  <path id="contour" d="M44,61.65h-7.6a1,1,0,0,0,0,2.1H44A1,1,0,0,0,44,61.65Zm34-46.3a7.26,7.26,0,0,0-5.22-3.25,6.18,6.18,0,0,0-3.63.81,26.79,26.79,0,0,0-2.53-4.19,20.73,20.73,0,0,0-7.74-6.61A28,28,0,0,0,47.21,0C45.29,0,43.48.11,42,.21l-1.86.1H40l-1.62-.08C37,0.15,35.31.05,33.48,0.05A29.21,29.21,0,0,0,21.35,2.24a20.69,20.69,0,0,0-7.74,6.61,26.8,26.8,0,0,0-2.56,4.24,6.17,6.17,0,0,0-3.73-.86,7.27,7.27,0,0,0-5.22,3.25C0.77,17.39-1.15,21.68.89,29.27A32.3,32.3,0,0,0,6.79,41.34c2.25,2.76,4.68,4.41,6.51,4.41a1,1,0,0,0,.43-0.09c0.15,0.18.29,0.35,0.44,0.52,1.68,1.93,3.35,3.7,5,5.41,5,5.33,9.35,9.94,10.71,15.83a16,16,0,0,0,1,3.06c1.08,2.62,2.91,4.71,5.24,5.34a10.84,10.84,0,0,0,4.32.88,8.6,8.6,0,0,0,1.85-.17,7.91,7.91,0,0,0,1.52-.48c2.32-1,5.28-3.38,6.54-8.77C51.7,61.41,56,56.81,61,51.47c1.61-1.72,3.28-3.49,5-5.41l0.41-.49a1,1,0,0,0,.33.06c1.82,0,4.26-1.65,6.51-4.41a32.19,32.19,0,0,0,5.89-12.08C81.21,21.55,79.28,17.24,77.95,15.36Zm-75,13.37c-1.82-6.76-.22-10.44.9-12a5.19,5.19,0,0,1,3.67-2.37,4,4,0,0,1,2.71.72,27.91,27.91,0,0,0-1.51,5.37A39.06,39.06,0,0,0,8.5,33.87,26.06,26.06,0,0,0,12,43.22C9.52,41.87,5.24,37.33,2.92,28.72Zm56.85,1.5c-0.24,6.29-.65,10-1.36,12.53-0.89,3.14-2.15,3.63-3.15,3.71-0.42,0-1.18-.26-2.42-1.82a40.63,40.63,0,0,1-2.92-4.54c-1.73-3-2.61-4.4-3.77-4.52A1.37,1.37,0,0,0,45,36c-1.21,1.32-.33,3.27.69,5.54,1,2.11,2,4.5,1.89,6.93a72.68,72.68,0,0,0,.36,9.67c0.2,2.42.38,4.7,0.38,6.76a12.43,12.43,0,0,1-1.77,6.44c-0.65,1-2.07,2.81-4.15,2.81H37.54c-3.49,0-5.93-4.85-5.93-9.2,0-2.06.18-4.34,0.38-6.76a72.91,72.91,0,0,0,.36-9.67c-0.14-2.43.94-4.82,1.89-6.93,1-2.26,1.91-4.22.69-5.54a1.38,1.38,0,0,0-1-.47H33.77c-1.16.13-2,1.56-3.77,4.52a40.74,40.74,0,0,1-2.92,4.54c-1.24,1.56-2,1.85-2.42,1.82-1-.08-2.26-0.57-3.15-3.71-0.71-2.49-1.12-6.24-1.36-12.53-0.24-6.06.57-10,2.46-11.93a6.24,6.24,0,0,1,4.81-1.7c2.74,0,5.37,1.94,7.68,3.66a14.1,14.1,0,0,0,4.52,2.64l0.17,0,0.18,0c1.5-.23,3-1.37,4.85-2.7,2.32-1.71,4.95-3.66,7.68-3.66a6.22,6.22,0,0,1,4.81,1.7c1.89,2,2.69,5.87,2.46,11.94h0Zm17.37-1.63C74.88,37,70.76,41.5,68.27,43a26,26,0,0,0,3.41-9.23,39.16,39.16,0,0,0-.19-13.47,27.91,27.91,0,0,0-1.54-5.44,4.07,4.07,0,0,1,2.61-.65,5.17,5.17,0,0,1,3.67,2.37c1.13,1.59,2.73,5.27.91,12h0ZM49.88,27.24a2.38,2.38,0,1,0,2.38,2.38,2.38,2.38,0,0,0-2.38-2.38h0ZM43.4,44.36l-3.24,3-3.24-3a1,1,0,0,0-1.41,1.55l3.91,3.57a1,1,0,0,0,.71.28H40.2a1,1,0,0,0,.71-0.28l3.91-3.57A1.05,1.05,0,0,0,43.4,44.36Zm-13-17.12a2.38,2.38,0,1,0,2.38,2.38h0A2.38,2.38,0,0,0,30.45,27.24Z"/>
</svg>
