<?xml version="1.0" encoding="utf-8"?>
<!-- Generator: Adobe Illustrator 19.2.1, SVG Export Plug-In . SVG Version: 6.00 Build 0)  -->
<svg version="1.1" id="icon_x5F_other-apes" xmlns="http://www.w3.org/2000/svg" xmlns:xlink="http://www.w3.org/1999/xlink"
	 x="0px" y="0px" viewBox="0 0 80.3 77.8" style="enable-background:new 0 0 80.3 77.8;" xml:space="preserve">
<style type="text/css">
	.st0{fill:#9B7051;}
</style>
<path id="face-color" class="st0" d="M13.2,31.4c-1-3.9-1-8.1,0.1-12C8,19.5,3.6,23.3,3.6,28c0,3.6,2.5,6.6,6.1,7.9
	C10.7,34.3,11.9,32.8,13.2,31.4z M67.3,19.5c1,3.9,1.1,8,0.1,12c1.3,1.3,2.5,2.8,3.5,4.4c3.4-1.3,5.8-4.3,5.8-7.8
	C76.6,23.4,72.5,19.7,67.3,19.5L67.3,19.5z M59.6,34.4c1.5-2.5,2.4-5.6,2.4-8.9c0-8.3-5.6-15.1-12.5-15.1c-3.5,0-6.7,1.8-9,4.6
	c-2.3-2.8-5.5-4.6-9-4.6c-6.9,0-12.5,6.7-12.5,15.1c0,3.2,0.8,6.2,2.3,8.6C14.1,38.4,9.5,45.1,9.5,52.5c0,12.9,13.7,23.3,30.7,23.3
	s30.7-10.4,30.7-23.3C70.8,45.2,66.4,38.7,59.6,34.4z M50.7,29.8c2.1,0,3.8,1.7,3.8,3.8c0,2.1-1.7,3.8-3.8,3.8s-3.8-1.7-3.8-3.8v0
	C46.9,31.5,48.6,29.8,50.7,29.8L50.7,29.8z M35.2,40.5c0.7-0.5,1.6-0.4,2.2,0.2l2.6,3.2l2.8-3.2c0.5-0.7,1.5-0.8,2.2-0.2
	c0.7,0.5,0.8,1.5,0.2,2.2c0,0,0,0.1-0.1,0.1l-4,4.6c-0.3,0.3-0.7,0.5-1.2,0.5h0c-0.5,0-0.9-0.2-1.2-0.6L35,42.7
	C34.4,42,34.5,41,35.2,40.5z M30,29.8c2.1,0,3.8,1.7,3.8,3.8c0,2.1-1.7,3.8-3.8,3.8s-3.8-1.7-3.8-3.8C26.2,31.5,27.9,29.8,30,29.8
	L30,29.8z M63.9,53.8c-0.4,0.3-10.7,7.6-24.2,7.6c-0.2,0-0.4,0-0.6,0c-13.8-0.2-22.6-7.3-23-7.6c-0.7-0.5-0.8-1.5-0.2-2.2
	c0.5-0.7,1.5-0.8,2.2-0.2c0.1,0.1,8.4,6.7,21.1,6.9c12.7,0.2,22.9-6.9,23-7c0.7-0.5,1.7-0.3,2.2,0.4C64.8,52.4,64.6,53.3,63.9,53.8
	L63.9,53.8z"/>
<path id="contour" d="M80.3,28c0-6.7-6-12.2-13.4-12.2c-0.3,0-0.5,0-0.8,0C61.9,6.5,51.9,0,40.3,0S18.7,6.6,14.6,15.9
	c-0.4,0-0.8,0-1.2,0C6,15.8,0,21.3,0,28c0,5,3.3,9.2,8,11.1c-1.4,3.2-2.2,6.6-2.2,10c0,15.8,15.5,28.6,34.6,28.6S74.9,65,74.9,49.2
	c0-3.5-0.8-7-2.3-10.2C77.1,37.1,80.3,32.9,80.3,28z M3.6,28c0-4.7,4.3-8.5,9.7-8.6c-1,3.9-1.1,8.1-0.1,12c-1.3,1.4-2.5,2.9-3.5,4.5
	C6.1,34.6,3.6,31.6,3.6,28L3.6,28z M40.2,75.8c-16.9,0-30.7-10.4-30.7-23.3c0-7.4,4.6-14,11.7-18.3c-1.4-2.4-2.3-5.4-2.3-8.6
	c0-8.3,5.6-15.1,12.5-15.1c3.5,0,6.7,1.8,9,4.6c2.3-2.8,5.5-4.6,9-4.6c6.9,0,12.5,6.7,12.5,15.1c0,3.3-0.9,6.4-2.4,8.9
	c6.9,4.3,11.3,10.8,11.3,18.1C70.8,65.3,57.1,75.8,40.2,75.8L40.2,75.8z M70.9,35.8c-1-1.6-2.2-3-3.5-4.4c1-3.9,1-8.1-0.1-12
	c5.2,0.2,9.3,4,9.3,8.6C76.6,31.5,74.3,34.5,70.9,35.8z M38.7,47.2c0.3,0.3,0.7,0.6,1.2,0.6h0c0.4,0,0.9-0.2,1.2-0.5l4-4.6
	c0.6-0.6,0.5-1.6-0.1-2.2c-0.6-0.6-1.6-0.5-2.2,0.1c0,0,0,0-0.1,0.1L40,43.9l-2.6-3.2c-0.5-0.7-1.5-0.8-2.2-0.3
	c-0.7,0.5-0.8,1.5-0.3,2.2c0,0,0,0,0.1,0.1L38.7,47.2z M50.7,37.4c2.1,0,3.8-1.7,3.8-3.8s-1.7-3.8-3.8-3.8s-3.8,1.7-3.8,3.8
	C46.9,35.7,48.6,37.4,50.7,37.4C50.7,37.4,50.7,37.4,50.7,37.4L50.7,37.4z M30,37.4c2.1,0,3.8-1.7,3.8-3.8c0-2.1-1.7-3.8-3.8-3.8
	s-3.8,1.7-3.8,3.8C26.2,35.7,27.9,37.4,30,37.4L30,37.4z M62.1,51.3c-0.1,0.1-10.3,7.2-23,7c-12.7-0.2-21-6.8-21.1-6.9
	c-0.7-0.5-1.6-0.4-2.2,0.2c-0.5,0.7-0.4,1.6,0.2,2.1c0.4,0.3,9.2,7.4,23,7.6c0.2,0,0.4,0,0.6,0c13.5,0,23.8-7.2,24.2-7.6
	c0.7-0.5,0.8-1.5,0.3-2.2C63.8,51,62.8,50.8,62.1,51.3z"/>
</svg>
